<svg width="48" height="48" viewBox="0 0 48 48" fill="none" xmlns="http://www.w3.org/2000/svg">
<path d="M35.999 6.07653C34.2281 4.46275 32.1528 3.21875 29.8949 2.41746C27.6369 1.61618 25.2417 1.27373 22.8497 1.41021C20.4577 1.54668 18.117 2.15933 15.9648 3.21223C13.8126 4.26513 11.8923 5.73709 10.3165 7.54182C8.74058 9.34655 7.54087 11.4477 6.78764 13.7222C6.03442 15.9966 5.74284 18.3985 5.93001 20.7871C6.11718 23.1757 6.77932 25.5029 7.87762 27.6323C8.97592 29.7616 10.4883 31.6503 12.326 33.1875C16.5275 36.6806 20.0379 40.9292 22.676 45.714C22.805 45.9523 22.9961 46.1512 23.229 46.2896C23.462 46.428 23.7281 46.5007 23.999 46.5C24.2698 46.4999 24.5354 46.4265 24.7678 46.2876C25.0002 46.1487 25.1907 45.9494 25.319 45.711L25.442 45.48C28.099 40.7532 31.6022 36.5549 35.777 33.0945C37.7117 31.4226 39.2675 29.3573 40.3408 27.0365C41.4141 24.7157 41.9801 22.1927 42.0011 19.6358C42.0221 17.0789 41.4977 14.5469 40.4626 12.2087C39.4276 9.87057 37.9059 7.78002 35.999 6.07653ZM23.999 27C22.5157 27 21.0656 26.5602 19.8322 25.7361C18.5989 24.9119 17.6376 23.7406 17.0699 22.3702C16.5023 20.9997 16.3537 19.4917 16.6431 18.0369C16.9325 16.582 17.6468 15.2456 18.6957 14.1967C19.7446 13.1478 21.081 12.4335 22.5358 12.1441C23.9907 11.8548 25.4987 12.0033 26.8691 12.5709C28.2396 13.1386 29.4109 14.0999 30.235 15.3333C31.0591 16.5666 31.499 18.0167 31.499 19.5C31.4966 21.4884 30.7057 23.3947 29.2997 24.8007C27.8937 26.2067 25.9874 26.9977 23.999 27Z" fill="#D3ED31"/>
</svg>
