<svg width="56" height="56" viewBox="0 0 56 56" fill="none" xmlns="http://www.w3.org/2000/svg">
<path d="M50.4025 0.00385014L5.60635 0.000861821C2.51382 0.000655521 0.00655229 2.50748 0.00620239 5.6L0.00113405 50.3961C0.000784159 53.4886 2.50749 55.9958 5.60001 55.996L50.3961 55.999C53.4886 55.9992 55.9959 53.4924 55.9963 50.3998L56.0013 5.60374C56.0017 2.51121 53.495 0.00405644 50.4025 0.00385014Z" fill="white"/>
<path d="M38.1166 28.974C33.8144 28.9736 30.3271 32.4602 30.3267 36.7618C30.3263 41.0633 33.8131 44.5518 38.1153 44.5522C42.4175 44.5525 45.9041 41.0651 45.9044 36.7631C45.9048 32.4611 42.4182 28.9744 38.1166 28.974ZM17.8802 28.9727C13.5787 28.9726 10.0909 32.4587 10.0906 36.7605C10.0902 41.0624 13.5773 44.5497 17.8789 44.5501C22.1804 44.5504 25.6684 41.0634 25.6688 36.7618C25.6692 32.4603 22.1824 28.9731 17.8802 28.9727ZM35.788 19.2377C35.7876 23.5392 32.3004 27.0271 27.9988 27.0267C23.6973 27.0263 20.2099 23.5379 20.2102 19.2363C20.2106 14.9348 23.698 11.4477 28.0002 11.4481C32.3024 11.4485 35.7884 14.9361 35.788 19.2377Z" fill="#F06A69"/>
</svg>
