<svg width="56" height="56" viewBox="0 0 56 56" fill="none" xmlns="http://www.w3.org/2000/svg">
<path d="M50.4 0H5.6C2.50721 0 0 2.50721 0 5.6V50.4C0 53.4928 2.50721 56 5.6 56H50.4C53.4928 56 56 53.4928 56 50.4V5.6C56 2.50721 53.4928 0 50.4 0Z" fill="#1E8E51"/>
<path d="M41.8982 23.4541C41.8982 30.7115 37.2129 35.6753 30.5125 35.6753C27.3343 35.6753 24.6967 34.3647 23.7138 32.7265L23.763 34.4139V44.8002H16.9316V17.9169C16.9316 17.5402 16.8333 17.4418 16.4238 17.4418H14.0811V11.7245H19.7985C22.4197 11.7245 23.075 13.9688 23.2715 14.9517C24.3036 13.2152 27.0231 11.2002 30.8565 11.2002C37.4586 11.2002 41.9145 16.1149 41.9145 23.4213L41.8982 23.4541ZM34.9193 23.4869C34.9193 19.6043 32.3964 16.934 29.2019 16.934C26.5807 16.934 23.632 18.6705 23.632 23.536C23.632 26.7142 25.4176 30.0398 29.12 30.0398C31.8394 30.0398 34.9357 28.0739 34.9357 23.4869H34.9193Z" fill="white"/>
</svg>
