<svg width="56" height="56" viewBox="0 0 56 56" fill="none" xmlns="http://www.w3.org/2000/svg">
<path d="M50.4943 0.849334L6.44902 0.0945875C3.40833 0.0424831 0.90112 2.46521 0.849016 5.5059L0.0942695 49.5512C0.0421651 52.5919 2.46489 55.0991 5.50558 55.1512L49.5508 55.9059C52.5915 55.958 55.0987 53.5353 55.1508 50.4946L55.9056 6.44933C55.9577 3.40864 53.535 0.901438 50.4943 0.849334Z" fill="white"/>
<path d="M22.5894 22.4001L11.5781 22.2114L11.2008 44.2339L33.2232 44.6113L33.6006 22.5888L22.5894 22.4001Z" fill="#9DE1F3"/>
<path d="M22.7783 11.3887L22.401 33.4111L44.4234 33.7885L44.8007 11.766L22.7783 11.3887Z" fill="#27B4E1"/>
<path d="M11.1996 44.2334L22.2107 44.4221L22.3994 33.4109L11.3883 33.2222L11.1996 44.2334ZM33.5994 22.5883L44.6106 22.777L44.7993 11.7658L33.7881 11.5771L33.5994 22.5883Z" fill="#1A82E2"/>
<path d="M22.4012 33.4121L33.4124 33.6008L33.601 22.5896L22.5898 22.4009L22.4012 33.4121Z" fill="#239FD7"/>
</svg>
